<mxfile host="app.diagrams.net" modified="2023-06-20T07:03:03.885Z" agent="Mozilla/5.0 (Windows NT 10.0; Win64; x64) AppleWebKit/537.36 (KHTML, like Gecko) Chrome/114.0.0.0 Safari/537.36" etag="nFQKgHIJWwU9E3e1PM0b" version="21.5.0" type="google">
  <diagram name="Network Diagram" id="NVMq7lsLO7Owd25coHqG">
    <mxGraphModel grid="0" page="0" gridSize="10" guides="1" tooltips="1" connect="1" arrows="1" fold="1" pageScale="1" pageWidth="850" pageHeight="1100" math="0" shadow="0">
      <root>
        <mxCell id="0" />
        <mxCell id="1" parent="0" />
        <mxCell id="jkwwJKn7hhoEOLC9MU1T-40" style="rounded=0;orthogonalLoop=1;jettySize=auto;html=1;endArrow=none;endFill=0;" edge="1" parent="1" source="jkwwJKn7hhoEOLC9MU1T-1" target="jkwwJKn7hhoEOLC9MU1T-2">
          <mxGeometry relative="1" as="geometry" />
        </mxCell>
        <mxCell id="jkwwJKn7hhoEOLC9MU1T-74" style="edgeStyle=orthogonalEdgeStyle;rounded=0;orthogonalLoop=1;jettySize=auto;html=1;entryX=-0.025;entryY=0.47;entryDx=0;entryDy=0;entryPerimeter=0;endArrow=none;endFill=0;" edge="1" parent="1" source="jkwwJKn7hhoEOLC9MU1T-1" target="jkwwJKn7hhoEOLC9MU1T-7">
          <mxGeometry relative="1" as="geometry" />
        </mxCell>
        <mxCell id="jkwwJKn7hhoEOLC9MU1T-1" value="Internet" style="ellipse;shape=cloud;whiteSpace=wrap;html=1;" vertex="1" parent="1">
          <mxGeometry x="360" y="290" width="120" height="80" as="geometry" />
        </mxCell>
        <mxCell id="jkwwJKn7hhoEOLC9MU1T-2" value="" style="shape=actor;whiteSpace=wrap;html=1;fillColor=#fff2cc;strokeColor=#d6b656;" vertex="1" parent="1">
          <mxGeometry x="357.5" y="120" width="40" height="60" as="geometry" />
        </mxCell>
        <mxCell id="jkwwJKn7hhoEOLC9MU1T-4" value="Employee" style="text;html=1;strokeColor=none;fillColor=none;align=center;verticalAlign=middle;whiteSpace=wrap;rounded=0;" vertex="1" parent="1">
          <mxGeometry x="322.5" y="180" width="60" height="30" as="geometry" />
        </mxCell>
        <mxCell id="jkwwJKn7hhoEOLC9MU1T-5" value="" style="rounded=0;whiteSpace=wrap;html=1;" vertex="1" parent="1">
          <mxGeometry x="-510" y="90" width="390" height="500" as="geometry" />
        </mxCell>
        <mxCell id="jkwwJKn7hhoEOLC9MU1T-6" value="PIK Outlet" style="text;html=1;strokeColor=none;fillColor=none;align=center;verticalAlign=middle;whiteSpace=wrap;rounded=0;" vertex="1" parent="1">
          <mxGeometry x="-500" y="90" width="60" height="30" as="geometry" />
        </mxCell>
        <mxCell id="jkwwJKn7hhoEOLC9MU1T-75" style="rounded=0;orthogonalLoop=1;jettySize=auto;html=1;entryX=0.006;entryY=0.468;entryDx=0;entryDy=0;entryPerimeter=0;endArrow=none;endFill=0;" edge="1" parent="1" source="jkwwJKn7hhoEOLC9MU1T-7" target="jkwwJKn7hhoEOLC9MU1T-72">
          <mxGeometry relative="1" as="geometry" />
        </mxCell>
        <mxCell id="jkwwJKn7hhoEOLC9MU1T-76" style="rounded=0;orthogonalLoop=1;jettySize=auto;html=1;entryX=0;entryY=0;entryDx=0;entryDy=30;entryPerimeter=0;endArrow=none;endFill=0;" edge="1" parent="1" source="jkwwJKn7hhoEOLC9MU1T-7" target="jkwwJKn7hhoEOLC9MU1T-73">
          <mxGeometry relative="1" as="geometry" />
        </mxCell>
        <mxCell id="jkwwJKn7hhoEOLC9MU1T-7" value="" style="image;points=[];aspect=fixed;html=1;align=center;shadow=0;dashed=0;image=img/lib/allied_telesis/buildings/Large_Building.svg;" vertex="1" parent="1">
          <mxGeometry x="590" y="295" width="75" height="75" as="geometry" />
        </mxCell>
        <mxCell id="jkwwJKn7hhoEOLC9MU1T-9" value="" style="rounded=0;whiteSpace=wrap;html=1;" vertex="1" parent="1">
          <mxGeometry x="-220" y="650" width="390" height="550" as="geometry" />
        </mxCell>
        <mxCell id="jkwwJKn7hhoEOLC9MU1T-10" value="Pakubuwono Outlet" style="text;html=1;strokeColor=none;fillColor=none;align=center;verticalAlign=middle;whiteSpace=wrap;rounded=0;" vertex="1" parent="1">
          <mxGeometry x="-220" y="660" width="100" height="30" as="geometry" />
        </mxCell>
        <mxCell id="jkwwJKn7hhoEOLC9MU1T-13" value="" style="rounded=0;whiteSpace=wrap;html=1;fontStyle=1" vertex="1" parent="1">
          <mxGeometry x="250" y="750" width="380" height="570" as="geometry" />
        </mxCell>
        <mxCell id="jkwwJKn7hhoEOLC9MU1T-14" value="Kitchen" style="text;html=1;strokeColor=none;fillColor=none;align=center;verticalAlign=middle;whiteSpace=wrap;rounded=0;fontStyle=0" vertex="1" parent="1">
          <mxGeometry x="250" y="750" width="60" height="30" as="geometry" />
        </mxCell>
        <mxCell id="jkwwJKn7hhoEOLC9MU1T-15" value="" style="rounded=0;whiteSpace=wrap;html=1;" vertex="1" parent="1">
          <mxGeometry x="760" y="740" width="610" height="560" as="geometry" />
        </mxCell>
        <mxCell id="jkwwJKn7hhoEOLC9MU1T-16" value="Main Office" style="text;html=1;strokeColor=none;fillColor=none;align=center;verticalAlign=middle;whiteSpace=wrap;rounded=0;" vertex="1" parent="1">
          <mxGeometry x="760" y="740" width="60" height="30" as="geometry" />
        </mxCell>
        <mxCell id="jkwwJKn7hhoEOLC9MU1T-17" value="" style="image;html=1;image=img/lib/clip_art/networking/Firewall_02_128x128.png" vertex="1" parent="1">
          <mxGeometry x="-210" y="150" width="80" height="80" as="geometry" />
        </mxCell>
        <mxCell id="jkwwJKn7hhoEOLC9MU1T-18" value="" style="image;html=1;image=img/lib/clip_art/networking/Firewall_02_128x128.png" vertex="1" parent="1">
          <mxGeometry x="70" y="670" width="80" height="80" as="geometry" />
        </mxCell>
        <mxCell id="jkwwJKn7hhoEOLC9MU1T-19" value="" style="image;html=1;image=img/lib/clip_art/networking/Firewall_02_128x128.png" vertex="1" parent="1">
          <mxGeometry x="430" y="780" width="80" height="80" as="geometry" />
        </mxCell>
        <mxCell id="jkwwJKn7hhoEOLC9MU1T-20" value="" style="image;html=1;image=img/lib/clip_art/networking/Firewall_02_128x128.png" vertex="1" parent="1">
          <mxGeometry x="880" y="780" width="80" height="80" as="geometry" />
        </mxCell>
        <mxCell id="jkwwJKn7hhoEOLC9MU1T-21" value="" style="image;html=1;image=img/lib/clip_art/networking/Wireless_Router_128x128.png" vertex="1" parent="1">
          <mxGeometry x="320" y="420" width="80" height="80" as="geometry" />
        </mxCell>
        <mxCell id="jkwwJKn7hhoEOLC9MU1T-22" value="" style="endArrow=none;html=1;rounded=0;exitX=1;exitY=1;exitDx=0;exitDy=0;entryX=0;entryY=0.25;entryDx=0;entryDy=0;" edge="1" parent="1" source="jkwwJKn7hhoEOLC9MU1T-17" target="jkwwJKn7hhoEOLC9MU1T-21">
          <mxGeometry width="50" height="50" relative="1" as="geometry">
            <mxPoint x="240" y="540" as="sourcePoint" />
            <mxPoint x="290" y="490" as="targetPoint" />
          </mxGeometry>
        </mxCell>
        <mxCell id="jkwwJKn7hhoEOLC9MU1T-23" value="" style="endArrow=none;html=1;rounded=0;exitX=1;exitY=0;exitDx=0;exitDy=0;entryX=0;entryY=1;entryDx=0;entryDy=0;" edge="1" parent="1" source="jkwwJKn7hhoEOLC9MU1T-18" target="jkwwJKn7hhoEOLC9MU1T-21">
          <mxGeometry width="50" height="50" relative="1" as="geometry">
            <mxPoint x="240" y="540" as="sourcePoint" />
            <mxPoint x="290" y="490" as="targetPoint" />
          </mxGeometry>
        </mxCell>
        <mxCell id="jkwwJKn7hhoEOLC9MU1T-24" value="" style="endArrow=none;html=1;rounded=0;entryX=0.75;entryY=1;entryDx=0;entryDy=0;exitX=0.25;exitY=0;exitDx=0;exitDy=0;" edge="1" parent="1" source="jkwwJKn7hhoEOLC9MU1T-19" target="jkwwJKn7hhoEOLC9MU1T-21">
          <mxGeometry width="50" height="50" relative="1" as="geometry">
            <mxPoint x="410" y="620" as="sourcePoint" />
            <mxPoint x="460" y="570" as="targetPoint" />
          </mxGeometry>
        </mxCell>
        <mxCell id="jkwwJKn7hhoEOLC9MU1T-25" value="Internet Provider" style="text;html=1;strokeColor=none;fillColor=none;align=center;verticalAlign=middle;whiteSpace=wrap;rounded=0;" vertex="1" parent="1">
          <mxGeometry x="320" y="510" width="60" height="30" as="geometry" />
        </mxCell>
        <mxCell id="jkwwJKn7hhoEOLC9MU1T-26" value="" style="endArrow=none;html=1;rounded=0;entryX=0;entryY=0;entryDx=0;entryDy=0;exitX=0.968;exitY=0.904;exitDx=0;exitDy=0;exitPerimeter=0;" edge="1" parent="1" source="jkwwJKn7hhoEOLC9MU1T-21" target="jkwwJKn7hhoEOLC9MU1T-20">
          <mxGeometry width="50" height="50" relative="1" as="geometry">
            <mxPoint x="410" y="620" as="sourcePoint" />
            <mxPoint x="460" y="570" as="targetPoint" />
          </mxGeometry>
        </mxCell>
        <mxCell id="jkwwJKn7hhoEOLC9MU1T-27" value="" style="endArrow=none;html=1;rounded=0;entryX=0.31;entryY=0.8;entryDx=0;entryDy=0;entryPerimeter=0;exitX=0.75;exitY=0;exitDx=0;exitDy=0;" edge="1" parent="1" source="jkwwJKn7hhoEOLC9MU1T-21" target="jkwwJKn7hhoEOLC9MU1T-1">
          <mxGeometry width="50" height="50" relative="1" as="geometry">
            <mxPoint x="480" y="550" as="sourcePoint" />
            <mxPoint x="530" y="500" as="targetPoint" />
          </mxGeometry>
        </mxCell>
        <mxCell id="jkwwJKn7hhoEOLC9MU1T-28" value="" style="image;html=1;image=img/lib/clip_art/networking/Switch_128x128.png" vertex="1" parent="1">
          <mxGeometry x="-320" y="250" width="80" height="80" as="geometry" />
        </mxCell>
        <mxCell id="jkwwJKn7hhoEOLC9MU1T-29" value="" style="image;html=1;image=img/lib/clip_art/networking/Switch_128x128.png" vertex="1" parent="1">
          <mxGeometry x="-30" y="820" width="80" height="80" as="geometry" />
        </mxCell>
        <mxCell id="jkwwJKn7hhoEOLC9MU1T-30" value="" style="image;html=1;image=img/lib/clip_art/networking/Switch_128x128.png" vertex="1" parent="1">
          <mxGeometry x="440" y="950" width="80" height="80" as="geometry" />
        </mxCell>
        <mxCell id="jkwwJKn7hhoEOLC9MU1T-31" value="" style="image;html=1;image=img/lib/clip_art/networking/Switch_128x128.png" vertex="1" parent="1">
          <mxGeometry x="880" y="940" width="80" height="80" as="geometry" />
        </mxCell>
        <mxCell id="jkwwJKn7hhoEOLC9MU1T-32" value="FIrewall" style="text;html=1;strokeColor=none;fillColor=none;align=center;verticalAlign=middle;whiteSpace=wrap;rounded=0;" vertex="1" parent="1">
          <mxGeometry x="-200" y="230" width="60" height="30" as="geometry" />
        </mxCell>
        <mxCell id="jkwwJKn7hhoEOLC9MU1T-33" value="FIrewall" style="text;html=1;strokeColor=none;fillColor=none;align=center;verticalAlign=middle;whiteSpace=wrap;rounded=0;" vertex="1" parent="1">
          <mxGeometry x="80" y="750" width="60" height="30" as="geometry" />
        </mxCell>
        <mxCell id="jkwwJKn7hhoEOLC9MU1T-34" value="FIrewall" style="text;html=1;strokeColor=none;fillColor=none;align=center;verticalAlign=middle;whiteSpace=wrap;rounded=0;" vertex="1" parent="1">
          <mxGeometry x="460" y="850" width="60" height="30" as="geometry" />
        </mxCell>
        <mxCell id="jkwwJKn7hhoEOLC9MU1T-35" value="FIrewall" style="text;html=1;strokeColor=none;fillColor=none;align=center;verticalAlign=middle;whiteSpace=wrap;rounded=0;" vertex="1" parent="1">
          <mxGeometry x="910" y="850" width="60" height="30" as="geometry" />
        </mxCell>
        <mxCell id="jkwwJKn7hhoEOLC9MU1T-36" value="Switch" style="text;html=1;strokeColor=none;fillColor=none;align=center;verticalAlign=middle;whiteSpace=wrap;rounded=0;" vertex="1" parent="1">
          <mxGeometry x="-310" y="318" width="60" height="30" as="geometry" />
        </mxCell>
        <mxCell id="jkwwJKn7hhoEOLC9MU1T-37" value="Switch" style="text;html=1;strokeColor=none;fillColor=none;align=center;verticalAlign=middle;whiteSpace=wrap;rounded=0;" vertex="1" parent="1">
          <mxGeometry x="-20" y="880" width="60" height="30" as="geometry" />
        </mxCell>
        <mxCell id="jkwwJKn7hhoEOLC9MU1T-38" value="Switch" style="text;html=1;strokeColor=none;fillColor=none;align=center;verticalAlign=middle;whiteSpace=wrap;rounded=0;" vertex="1" parent="1">
          <mxGeometry x="460" y="1010" width="60" height="30" as="geometry" />
        </mxCell>
        <mxCell id="jkwwJKn7hhoEOLC9MU1T-39" value="Switch" style="text;html=1;strokeColor=none;fillColor=none;align=center;verticalAlign=middle;whiteSpace=wrap;rounded=0;" vertex="1" parent="1">
          <mxGeometry x="920" y="990" width="60" height="30" as="geometry" />
        </mxCell>
        <mxCell id="jkwwJKn7hhoEOLC9MU1T-41" value="" style="image;points=[];aspect=fixed;html=1;align=center;shadow=0;dashed=0;image=img/lib/allied_telesis/computer_and_terminals/Personal_Computer.svg;" vertex="1" parent="1">
          <mxGeometry x="1048.5" y="1040" width="45.6" height="61.800000000000004" as="geometry" />
        </mxCell>
        <mxCell id="jkwwJKn7hhoEOLC9MU1T-44" value="Head of Operation PC" style="text;html=1;strokeColor=none;fillColor=none;align=center;verticalAlign=middle;whiteSpace=wrap;rounded=0;" vertex="1" parent="1">
          <mxGeometry x="1061.5" y="1141" width="60" height="30" as="geometry" />
        </mxCell>
        <mxCell id="jkwwJKn7hhoEOLC9MU1T-49" value="Laptop" style="text;html=1;strokeColor=none;fillColor=none;align=center;verticalAlign=middle;whiteSpace=wrap;rounded=0;" vertex="1" parent="1">
          <mxGeometry x="-440" y="405.45" width="60" height="30" as="geometry" />
        </mxCell>
        <mxCell id="jkwwJKn7hhoEOLC9MU1T-58" value="" style="image;points=[];aspect=fixed;html=1;align=center;shadow=0;dashed=0;image=img/lib/allied_telesis/computer_and_terminals/Personal_Computer.svg;" vertex="1" parent="1">
          <mxGeometry x="950" y="1104.55" width="45.6" height="61.800000000000004" as="geometry" />
        </mxCell>
        <mxCell id="jkwwJKn7hhoEOLC9MU1T-61" value="Finance PC" style="text;html=1;strokeColor=none;fillColor=none;align=center;verticalAlign=middle;whiteSpace=wrap;rounded=0;" vertex="1" parent="1">
          <mxGeometry x="942.8" y="1185" width="60" height="30" as="geometry" />
        </mxCell>
        <mxCell id="jkwwJKn7hhoEOLC9MU1T-62" value="" style="image;html=1;image=img/lib/clip_art/computers/Printer_128x128.png" vertex="1" parent="1">
          <mxGeometry x="-190" y="730" width="80" height="80" as="geometry" />
        </mxCell>
        <mxCell id="jkwwJKn7hhoEOLC9MU1T-63" value="Printer" style="text;html=1;strokeColor=none;fillColor=none;align=center;verticalAlign=middle;whiteSpace=wrap;rounded=0;" vertex="1" parent="1">
          <mxGeometry x="-180" y="820" width="60" height="30" as="geometry" />
        </mxCell>
        <mxCell id="jkwwJKn7hhoEOLC9MU1T-64" value="" style="image;html=1;image=img/lib/clip_art/computers/Printer_128x128.png" vertex="1" parent="1">
          <mxGeometry x="-480" y="170" width="80" height="80" as="geometry" />
        </mxCell>
        <mxCell id="jkwwJKn7hhoEOLC9MU1T-65" value="Printer" style="text;html=1;strokeColor=none;fillColor=none;align=center;verticalAlign=middle;whiteSpace=wrap;rounded=0;" vertex="1" parent="1">
          <mxGeometry x="-470" y="260" width="60" height="30" as="geometry" />
        </mxCell>
        <mxCell id="jkwwJKn7hhoEOLC9MU1T-66" value="" style="image;html=1;image=img/lib/clip_art/computers/Printer_128x128.png" vertex="1" parent="1">
          <mxGeometry x="280" y="940.4" width="80" height="80" as="geometry" />
        </mxCell>
        <mxCell id="jkwwJKn7hhoEOLC9MU1T-67" value="Printer" style="text;html=1;strokeColor=none;fillColor=none;align=center;verticalAlign=middle;whiteSpace=wrap;rounded=0;" vertex="1" parent="1">
          <mxGeometry x="290" y="1030.4" width="60" height="30" as="geometry" />
        </mxCell>
        <mxCell id="jkwwJKn7hhoEOLC9MU1T-68" value="" style="image;html=1;image=img/lib/clip_art/computers/Printer_128x128.png" vertex="1" parent="1">
          <mxGeometry x="1160" y="850" width="80" height="80" as="geometry" />
        </mxCell>
        <mxCell id="jkwwJKn7hhoEOLC9MU1T-69" value="Printer" style="text;html=1;strokeColor=none;fillColor=none;align=center;verticalAlign=middle;whiteSpace=wrap;rounded=0;" vertex="1" parent="1">
          <mxGeometry x="1170" y="940" width="60" height="30" as="geometry" />
        </mxCell>
        <mxCell id="jkwwJKn7hhoEOLC9MU1T-71" value="Central Corporate System" style="text;html=1;strokeColor=none;fillColor=none;align=center;verticalAlign=middle;whiteSpace=wrap;rounded=0;" vertex="1" parent="1">
          <mxGeometry x="598" y="375" width="60" height="30" as="geometry" />
        </mxCell>
        <mxCell id="jkwwJKn7hhoEOLC9MU1T-78" value="" style="edgeStyle=orthogonalEdgeStyle;rounded=0;orthogonalLoop=1;jettySize=auto;html=1;entryX=-0.025;entryY=0.329;entryDx=0;entryDy=0;entryPerimeter=0;startArrow=classic;startFill=1;" edge="1" parent="1" source="jkwwJKn7hhoEOLC9MU1T-72" target="jkwwJKn7hhoEOLC9MU1T-77">
          <mxGeometry relative="1" as="geometry" />
        </mxCell>
        <mxCell id="jkwwJKn7hhoEOLC9MU1T-72" value="Inventory Aplication" style="shape=cube;whiteSpace=wrap;html=1;boundedLbl=1;backgroundOutline=1;darkOpacity=0.05;darkOpacity2=0.1;" vertex="1" parent="1">
          <mxGeometry x="850" y="205" width="120" height="80" as="geometry" />
        </mxCell>
        <mxCell id="jkwwJKn7hhoEOLC9MU1T-79" value="" style="edgeStyle=orthogonalEdgeStyle;rounded=0;orthogonalLoop=1;jettySize=auto;html=1;entryX=-0.025;entryY=0.801;entryDx=0;entryDy=0;entryPerimeter=0;startArrow=classic;startFill=1;" edge="1" parent="1" source="jkwwJKn7hhoEOLC9MU1T-73" target="jkwwJKn7hhoEOLC9MU1T-77">
          <mxGeometry relative="1" as="geometry">
            <Array as="points">
              <mxPoint x="1022" y="425" />
              <mxPoint x="1022" y="424" />
            </Array>
          </mxGeometry>
        </mxCell>
        <mxCell id="jkwwJKn7hhoEOLC9MU1T-73" value="Product Manufacturing Application" style="shape=cube;whiteSpace=wrap;html=1;boundedLbl=1;backgroundOutline=1;darkOpacity=0.05;darkOpacity2=0.1;" vertex="1" parent="1">
          <mxGeometry x="853" y="385.4" width="120" height="80" as="geometry" />
        </mxCell>
        <mxCell id="jkwwJKn7hhoEOLC9MU1T-77" value="Enterprise Service Bus" style="rounded=0;whiteSpace=wrap;html=1;fillColor=#fff2cc;strokeColor=#d6b656;" vertex="1" parent="1">
          <mxGeometry x="1070" y="120" width="120" height="380" as="geometry" />
        </mxCell>
        <mxCell id="jkwwJKn7hhoEOLC9MU1T-80" value="" style="rounded=0;whiteSpace=wrap;html=1;fillColor=#dae8fc;strokeColor=#6c8ebf;" vertex="1" parent="1">
          <mxGeometry x="1610" y="155" width="190" height="330" as="geometry" />
        </mxCell>
        <mxCell id="jkwwJKn7hhoEOLC9MU1T-81" value="Database Layer" style="text;html=1;strokeColor=none;fillColor=none;align=center;verticalAlign=middle;whiteSpace=wrap;rounded=0;" vertex="1" parent="1">
          <mxGeometry x="1610" y="155" width="60" height="30" as="geometry" />
        </mxCell>
        <mxCell id="jkwwJKn7hhoEOLC9MU1T-82" value="" style="image;html=1;image=img/lib/clip_art/computers/Database_128x128.png" vertex="1" parent="1">
          <mxGeometry x="1670" y="280" width="80" height="80" as="geometry" />
        </mxCell>
        <mxCell id="jkwwJKn7hhoEOLC9MU1T-83" value="Centralized Database Server" style="text;html=1;strokeColor=none;fillColor=none;align=center;verticalAlign=middle;whiteSpace=wrap;rounded=0;" vertex="1" parent="1">
          <mxGeometry x="1675" y="365" width="60" height="30" as="geometry" />
        </mxCell>
        <mxCell id="jkwwJKn7hhoEOLC9MU1T-85" value="" style="endArrow=none;html=1;rounded=0;" edge="1" parent="1" source="jkwwJKn7hhoEOLC9MU1T-28">
          <mxGeometry width="50" height="50" relative="1" as="geometry">
            <mxPoint x="-250" y="260" as="sourcePoint" />
            <mxPoint x="-210" y="220" as="targetPoint" />
          </mxGeometry>
        </mxCell>
        <mxCell id="jkwwJKn7hhoEOLC9MU1T-86" value="" style="endArrow=none;html=1;rounded=0;exitX=0.982;exitY=0.672;exitDx=0;exitDy=0;exitPerimeter=0;entryX=0;entryY=0.25;entryDx=0;entryDy=0;" edge="1" parent="1" source="jkwwJKn7hhoEOLC9MU1T-64" target="jkwwJKn7hhoEOLC9MU1T-28">
          <mxGeometry width="50" height="50" relative="1" as="geometry">
            <mxPoint x="-290" y="350" as="sourcePoint" />
            <mxPoint x="-240" y="300" as="targetPoint" />
          </mxGeometry>
        </mxCell>
        <mxCell id="jkwwJKn7hhoEOLC9MU1T-87" value="" style="endArrow=none;html=1;rounded=0;exitX=0.893;exitY=1.016;exitDx=0;exitDy=0;exitPerimeter=0;entryX=0.009;entryY=0.432;entryDx=0;entryDy=0;entryPerimeter=0;" edge="1" parent="1" source="jkwwJKn7hhoEOLC9MU1T-62" target="jkwwJKn7hhoEOLC9MU1T-29">
          <mxGeometry width="50" height="50" relative="1" as="geometry">
            <mxPoint y="750" as="sourcePoint" />
            <mxPoint x="50" y="700" as="targetPoint" />
          </mxGeometry>
        </mxCell>
        <mxCell id="jkwwJKn7hhoEOLC9MU1T-88" value="" style="endArrow=none;html=1;rounded=0;exitX=0.75;exitY=0;exitDx=0;exitDy=0;entryX=0;entryY=1;entryDx=0;entryDy=0;" edge="1" parent="1" source="jkwwJKn7hhoEOLC9MU1T-29" target="jkwwJKn7hhoEOLC9MU1T-18">
          <mxGeometry width="50" height="50" relative="1" as="geometry">
            <mxPoint y="750" as="sourcePoint" />
            <mxPoint x="50" y="700" as="targetPoint" />
          </mxGeometry>
        </mxCell>
        <mxCell id="jkwwJKn7hhoEOLC9MU1T-89" value="" style="endArrow=none;html=1;rounded=0;exitX=0.982;exitY=0.136;exitDx=0;exitDy=0;exitPerimeter=0;entryX=0;entryY=0.5;entryDx=0;entryDy=0;" edge="1" parent="1" source="jkwwJKn7hhoEOLC9MU1T-66" target="jkwwJKn7hhoEOLC9MU1T-30">
          <mxGeometry width="50" height="50" relative="1" as="geometry">
            <mxPoint x="360" y="940" as="sourcePoint" />
            <mxPoint x="410" y="890" as="targetPoint" />
          </mxGeometry>
        </mxCell>
        <mxCell id="jkwwJKn7hhoEOLC9MU1T-90" value="" style="endArrow=none;html=1;rounded=0;entryX=0.25;entryY=1;entryDx=0;entryDy=0;exitX=0.25;exitY=0;exitDx=0;exitDy=0;" edge="1" parent="1" source="jkwwJKn7hhoEOLC9MU1T-30" target="jkwwJKn7hhoEOLC9MU1T-19">
          <mxGeometry width="50" height="50" relative="1" as="geometry">
            <mxPoint x="360" y="940" as="sourcePoint" />
            <mxPoint x="410" y="890" as="targetPoint" />
          </mxGeometry>
        </mxCell>
        <mxCell id="jkwwJKn7hhoEOLC9MU1T-91" value="" style="endArrow=none;html=1;rounded=0;exitX=0.195;exitY=0.007;exitDx=0;exitDy=0;exitPerimeter=0;" edge="1" parent="1" source="jkwwJKn7hhoEOLC9MU1T-31" target="jkwwJKn7hhoEOLC9MU1T-20">
          <mxGeometry width="50" height="50" relative="1" as="geometry">
            <mxPoint x="850" y="940" as="sourcePoint" />
            <mxPoint x="900" y="890" as="targetPoint" />
          </mxGeometry>
        </mxCell>
        <mxCell id="jkwwJKn7hhoEOLC9MU1T-92" value="" style="endArrow=none;html=1;rounded=0;" edge="1" parent="1" source="jkwwJKn7hhoEOLC9MU1T-31" target="jkwwJKn7hhoEOLC9MU1T-68">
          <mxGeometry width="50" height="50" relative="1" as="geometry">
            <mxPoint x="980" y="1000" as="sourcePoint" />
            <mxPoint x="1030" y="950" as="targetPoint" />
          </mxGeometry>
        </mxCell>
        <mxCell id="d4GdmEZLq7_YlJv6CLmo-1" value="" style="verticalLabelPosition=bottom;sketch=0;aspect=fixed;html=1;verticalAlign=top;strokeColor=none;align=center;outlineConnect=0;shape=mxgraph.citrix.tablet_2;" vertex="1" parent="1">
          <mxGeometry x="-292" y="400" width="82" height="86" as="geometry" />
        </mxCell>
        <mxCell id="d4GdmEZLq7_YlJv6CLmo-2" value="" style="endArrow=none;html=1;rounded=0;" edge="1" parent="1" target="jkwwJKn7hhoEOLC9MU1T-28">
          <mxGeometry width="50" height="50" relative="1" as="geometry">
            <mxPoint x="-380" y="351.44136807817574" as="sourcePoint" />
            <mxPoint x="-310" y="280" as="targetPoint" />
          </mxGeometry>
        </mxCell>
        <mxCell id="i6U4-BNK0jWFAg_k8UE4-1" value="" style="endArrow=none;html=1;rounded=0;entryX=0.667;entryY=0.733;entryDx=0;entryDy=0;entryPerimeter=0;" edge="1" parent="1" source="d4GdmEZLq7_YlJv6CLmo-1" target="jkwwJKn7hhoEOLC9MU1T-36">
          <mxGeometry width="50" height="50" relative="1" as="geometry">
            <mxPoint x="-370" y="361" as="sourcePoint" />
            <mxPoint x="-310" y="325" as="targetPoint" />
          </mxGeometry>
        </mxCell>
        <mxCell id="i6U4-BNK0jWFAg_k8UE4-5" value="Laptop" style="text;html=1;strokeColor=none;fillColor=none;align=center;verticalAlign=middle;whiteSpace=wrap;rounded=0;" vertex="1" parent="1">
          <mxGeometry x="-150" y="972.95" width="60" height="30" as="geometry" />
        </mxCell>
        <mxCell id="i6U4-BNK0jWFAg_k8UE4-6" value="" style="verticalLabelPosition=bottom;sketch=0;aspect=fixed;html=1;verticalAlign=top;strokeColor=none;align=center;outlineConnect=0;shape=mxgraph.citrix.tablet_2;" vertex="1" parent="1">
          <mxGeometry x="-2" y="967.5" width="82" height="86" as="geometry" />
        </mxCell>
        <mxCell id="i6U4-BNK0jWFAg_k8UE4-7" value="" style="endArrow=none;html=1;rounded=0;" edge="1" parent="1">
          <mxGeometry width="50" height="50" relative="1" as="geometry">
            <mxPoint x="-90" y="919.0579710144928" as="sourcePoint" />
            <mxPoint x="-30" y="882.5" as="targetPoint" />
          </mxGeometry>
        </mxCell>
        <mxCell id="i6U4-BNK0jWFAg_k8UE4-8" value="" style="endArrow=none;html=1;rounded=0;entryX=0.667;entryY=0.733;entryDx=0;entryDy=0;entryPerimeter=0;" edge="1" parent="1" source="i6U4-BNK0jWFAg_k8UE4-6">
          <mxGeometry width="50" height="50" relative="1" as="geometry">
            <mxPoint x="-80" y="928.5" as="sourcePoint" />
            <mxPoint x="20" y="907.5" as="targetPoint" />
          </mxGeometry>
        </mxCell>
        <mxCell id="i6U4-BNK0jWFAg_k8UE4-9" value="Tablet" style="text;html=1;strokeColor=none;fillColor=none;align=center;verticalAlign=middle;whiteSpace=wrap;rounded=0;" vertex="1" parent="1">
          <mxGeometry x="20" y="1067.5" width="60" height="30" as="geometry" />
        </mxCell>
        <mxCell id="i6U4-BNK0jWFAg_k8UE4-10" value="" style="image;points=[];aspect=fixed;html=1;align=center;shadow=0;dashed=0;image=img/lib/allied_telesis/computer_and_terminals/Laptop.svg;" vertex="1" parent="1">
          <mxGeometry x="-440" y="342.8" width="57" height="57.81" as="geometry" />
        </mxCell>
        <mxCell id="i6U4-BNK0jWFAg_k8UE4-2" value="Tablet" style="text;html=1;strokeColor=none;fillColor=none;align=center;verticalAlign=middle;whiteSpace=wrap;rounded=0;" vertex="1" parent="1">
          <mxGeometry x="-270" y="500" width="60" height="30" as="geometry" />
        </mxCell>
        <mxCell id="i6U4-BNK0jWFAg_k8UE4-11" value="" style="image;points=[];aspect=fixed;html=1;align=center;shadow=0;dashed=0;image=img/lib/allied_telesis/computer_and_terminals/Laptop.svg;" vertex="1" parent="1">
          <mxGeometry x="-150" y="915.1400000000001" width="57" height="57.81" as="geometry" />
        </mxCell>
        <mxCell id="i6U4-BNK0jWFAg_k8UE4-16" value="Laptop" style="text;html=1;strokeColor=none;fillColor=none;align=center;verticalAlign=middle;whiteSpace=wrap;rounded=0;" vertex="1" parent="1">
          <mxGeometry x="325" y="1120.45" width="60" height="30" as="geometry" />
        </mxCell>
        <mxCell id="i6U4-BNK0jWFAg_k8UE4-17" value="" style="verticalLabelPosition=bottom;sketch=0;aspect=fixed;html=1;verticalAlign=top;strokeColor=none;align=center;outlineConnect=0;shape=mxgraph.citrix.tablet_2;" vertex="1" parent="1">
          <mxGeometry x="473" y="1115" width="82" height="86" as="geometry" />
        </mxCell>
        <mxCell id="i6U4-BNK0jWFAg_k8UE4-18" value="" style="endArrow=none;html=1;rounded=0;" edge="1" parent="1">
          <mxGeometry width="50" height="50" relative="1" as="geometry">
            <mxPoint x="385" y="1066.5579710144928" as="sourcePoint" />
            <mxPoint x="445" y="1030" as="targetPoint" />
          </mxGeometry>
        </mxCell>
        <mxCell id="i6U4-BNK0jWFAg_k8UE4-19" value="" style="endArrow=none;html=1;rounded=0;entryX=0.667;entryY=0.733;entryDx=0;entryDy=0;entryPerimeter=0;" edge="1" parent="1" source="i6U4-BNK0jWFAg_k8UE4-17">
          <mxGeometry width="50" height="50" relative="1" as="geometry">
            <mxPoint x="395" y="1076" as="sourcePoint" />
            <mxPoint x="494.99999999999994" y="1055" as="targetPoint" />
          </mxGeometry>
        </mxCell>
        <mxCell id="i6U4-BNK0jWFAg_k8UE4-20" value="Tablet" style="text;html=1;strokeColor=none;fillColor=none;align=center;verticalAlign=middle;whiteSpace=wrap;rounded=0;" vertex="1" parent="1">
          <mxGeometry x="494.99999999999994" y="1215" width="60" height="30" as="geometry" />
        </mxCell>
        <mxCell id="i6U4-BNK0jWFAg_k8UE4-21" value="" style="image;points=[];aspect=fixed;html=1;align=center;shadow=0;dashed=0;image=img/lib/allied_telesis/computer_and_terminals/Laptop.svg;" vertex="1" parent="1">
          <mxGeometry x="325" y="1062.64" width="57" height="57.81" as="geometry" />
        </mxCell>
        <mxCell id="i6U4-BNK0jWFAg_k8UE4-22" value="" style="image;points=[];aspect=fixed;html=1;align=center;shadow=0;dashed=0;image=img/lib/allied_telesis/computer_and_terminals/Personal_Computer.svg;" vertex="1" parent="1">
          <mxGeometry x="837.2" y="1080.22" width="45.6" height="61.800000000000004" as="geometry" />
        </mxCell>
        <mxCell id="i6U4-BNK0jWFAg_k8UE4-23" value="Purchasing PC" style="text;html=1;strokeColor=none;fillColor=none;align=center;verticalAlign=middle;whiteSpace=wrap;rounded=0;" vertex="1" parent="1">
          <mxGeometry x="830" y="1160.67" width="60" height="30" as="geometry" />
        </mxCell>
        <mxCell id="i6U4-BNK0jWFAg_k8UE4-24" value="" style="endArrow=none;html=1;rounded=0;" edge="1" parent="1" source="jkwwJKn7hhoEOLC9MU1T-31" target="i6U4-BNK0jWFAg_k8UE4-22">
          <mxGeometry width="50" height="50" relative="1" as="geometry">
            <mxPoint x="970" y="977" as="sourcePoint" />
            <mxPoint x="1170" y="913" as="targetPoint" />
          </mxGeometry>
        </mxCell>
        <mxCell id="i6U4-BNK0jWFAg_k8UE4-25" value="" style="endArrow=none;html=1;rounded=0;" edge="1" parent="1" source="jkwwJKn7hhoEOLC9MU1T-31" target="jkwwJKn7hhoEOLC9MU1T-58">
          <mxGeometry width="50" height="50" relative="1" as="geometry">
            <mxPoint x="912" y="1030" as="sourcePoint" />
            <mxPoint x="884" y="1090" as="targetPoint" />
          </mxGeometry>
        </mxCell>
        <mxCell id="i6U4-BNK0jWFAg_k8UE4-26" value="" style="endArrow=none;html=1;rounded=0;" edge="1" parent="1" source="jkwwJKn7hhoEOLC9MU1T-31" target="jkwwJKn7hhoEOLC9MU1T-41">
          <mxGeometry width="50" height="50" relative="1" as="geometry">
            <mxPoint x="944" y="1030" as="sourcePoint" />
            <mxPoint x="972" y="1115" as="targetPoint" />
          </mxGeometry>
        </mxCell>
        <mxCell id="2i_2w3KIfX5WxP5sCduS-25" style="edgeStyle=orthogonalEdgeStyle;rounded=0;orthogonalLoop=1;jettySize=auto;html=1;fontFamily=Helvetica;fontSize=12;fontColor=default;startArrow=classic;startFill=1;" edge="1" parent="1" source="2i_2w3KIfX5WxP5sCduS-26" target="jkwwJKn7hhoEOLC9MU1T-77">
          <mxGeometry relative="1" as="geometry">
            <Array as="points">
              <mxPoint x="1130" y="-50" />
            </Array>
            <mxPoint x="1192" y="99.39" as="targetPoint" />
          </mxGeometry>
        </mxCell>
        <mxCell id="2i_2w3KIfX5WxP5sCduS-26" value="&lt;div&gt;Production Planning&lt;/div&gt;" style="ellipse;whiteSpace=wrap;html=1;" vertex="1" parent="1">
          <mxGeometry x="1301" y="-90" width="120" height="80" as="geometry" />
        </mxCell>
        <mxCell id="2i_2w3KIfX5WxP5sCduS-27" value="" style="edgeStyle=orthogonalEdgeStyle;rounded=0;orthogonalLoop=1;jettySize=auto;html=1;fontFamily=Helvetica;fontSize=12;fontColor=default;startArrow=classic;startFill=1;" edge="1" parent="1" source="2i_2w3KIfX5WxP5sCduS-28" target="jkwwJKn7hhoEOLC9MU1T-77">
          <mxGeometry relative="1" as="geometry">
            <Array as="points">
              <mxPoint x="1246" y="150" />
              <mxPoint x="1246" y="230" />
            </Array>
            <mxPoint x="1191" y="227.39" as="targetPoint" />
          </mxGeometry>
        </mxCell>
        <mxCell id="2i_2w3KIfX5WxP5sCduS-28" value="&lt;div&gt;Manage Quality Control&lt;/div&gt;" style="ellipse;whiteSpace=wrap;html=1;" vertex="1" parent="1">
          <mxGeometry x="1299.48" y="109.99999999999997" width="120" height="80" as="geometry" />
        </mxCell>
        <mxCell id="2i_2w3KIfX5WxP5sCduS-29" style="edgeStyle=orthogonalEdgeStyle;rounded=0;orthogonalLoop=1;jettySize=auto;html=1;fontFamily=Helvetica;fontSize=12;fontColor=default;startArrow=classic;startFill=1;" edge="1" parent="1" source="2i_2w3KIfX5WxP5sCduS-30" target="jkwwJKn7hhoEOLC9MU1T-77">
          <mxGeometry relative="1" as="geometry">
            <mxPoint x="1193" y="143.39" as="targetPoint" />
            <Array as="points">
              <mxPoint x="1220" y="50" />
              <mxPoint x="1220" y="160" />
            </Array>
          </mxGeometry>
        </mxCell>
        <mxCell id="2i_2w3KIfX5WxP5sCduS-30" value="Manage Purchase Request" style="ellipse;whiteSpace=wrap;html=1;" vertex="1" parent="1">
          <mxGeometry x="1301" y="9.999999999999957" width="120" height="80" as="geometry" />
        </mxCell>
        <mxCell id="2i_2w3KIfX5WxP5sCduS-31" style="edgeStyle=orthogonalEdgeStyle;rounded=0;orthogonalLoop=1;jettySize=auto;html=1;fontFamily=Helvetica;fontSize=12;fontColor=default;startArrow=classic;startFill=1;" edge="1" parent="1" source="2i_2w3KIfX5WxP5sCduS-32" target="jkwwJKn7hhoEOLC9MU1T-77">
          <mxGeometry relative="1" as="geometry">
            <mxPoint x="1190" y="347.39" as="targetPoint" />
          </mxGeometry>
        </mxCell>
        <mxCell id="2i_2w3KIfX5WxP5sCduS-32" value="&lt;div&gt;View Order History&lt;/div&gt;" style="ellipse;whiteSpace=wrap;html=1;aspect=fixed;" vertex="1" parent="1">
          <mxGeometry x="1324.48" y="209.99999999999997" width="95" height="95" as="geometry" />
        </mxCell>
        <mxCell id="2i_2w3KIfX5WxP5sCduS-33" style="edgeStyle=orthogonalEdgeStyle;rounded=0;orthogonalLoop=1;jettySize=auto;html=1;fontFamily=Helvetica;fontSize=12;fontColor=default;startArrow=classic;startFill=1;" edge="1" parent="1" source="2i_2w3KIfX5WxP5sCduS-34" target="jkwwJKn7hhoEOLC9MU1T-77">
          <mxGeometry relative="1" as="geometry">
            <mxPoint x="1194" y="452.39" as="targetPoint" />
            <Array as="points">
              <mxPoint x="1320" y="370" />
              <mxPoint x="1320" y="370" />
            </Array>
          </mxGeometry>
        </mxCell>
        <mxCell id="2i_2w3KIfX5WxP5sCduS-34" value="&lt;div&gt;View Purchase Order&lt;/div&gt;" style="ellipse;whiteSpace=wrap;html=1;aspect=fixed;" vertex="1" parent="1">
          <mxGeometry x="1336.98" y="330" width="70" height="70" as="geometry" />
        </mxCell>
        <mxCell id="2i_2w3KIfX5WxP5sCduS-35" style="edgeStyle=orthogonalEdgeStyle;rounded=0;orthogonalLoop=1;jettySize=auto;html=1;fontFamily=Helvetica;fontSize=12;fontColor=default;startArrow=classic;startFill=1;" edge="1" parent="1" source="2i_2w3KIfX5WxP5sCduS-36" target="jkwwJKn7hhoEOLC9MU1T-77">
          <mxGeometry relative="1" as="geometry">
            <mxPoint x="1201" y="552.39" as="targetPoint" />
            <Array as="points">
              <mxPoint x="1230" y="450" />
              <mxPoint x="1230" y="450" />
            </Array>
          </mxGeometry>
        </mxCell>
        <mxCell id="2i_2w3KIfX5WxP5sCduS-36" value="View Approved PR List" style="ellipse;whiteSpace=wrap;html=1;aspect=fixed;" vertex="1" parent="1">
          <mxGeometry x="1336.98" y="415" width="70" height="70" as="geometry" />
        </mxCell>
        <mxCell id="2i_2w3KIfX5WxP5sCduS-37" style="edgeStyle=orthogonalEdgeStyle;rounded=0;orthogonalLoop=1;jettySize=auto;html=1;fontFamily=Helvetica;fontSize=12;fontColor=default;startArrow=classic;startFill=1;" edge="1" parent="1" source="2i_2w3KIfX5WxP5sCduS-38" target="jkwwJKn7hhoEOLC9MU1T-77">
          <mxGeometry relative="1" as="geometry">
            <mxPoint x="1191" y="597.39" as="targetPoint" />
            <Array as="points">
              <mxPoint x="1140" y="540" />
            </Array>
          </mxGeometry>
        </mxCell>
        <mxCell id="2i_2w3KIfX5WxP5sCduS-38" value="&lt;div&gt;Create Purchase Order (Mon/Thurs)&lt;/div&gt;" style="ellipse;whiteSpace=wrap;html=1;aspect=fixed;" vertex="1" parent="1">
          <mxGeometry x="1336.98" y="500" width="70" height="70" as="geometry" />
        </mxCell>
        <mxCell id="2i_2w3KIfX5WxP5sCduS-39" style="edgeStyle=orthogonalEdgeStyle;rounded=0;orthogonalLoop=1;jettySize=auto;html=1;fontFamily=Helvetica;fontSize=12;fontColor=default;startArrow=classic;startFill=1;" edge="1" parent="1" source="2i_2w3KIfX5WxP5sCduS-40" target="jkwwJKn7hhoEOLC9MU1T-77">
          <mxGeometry relative="1" as="geometry">
            <Array as="points">
              <mxPoint x="1130" y="630" />
            </Array>
            <mxPoint x="1191" y="627.39" as="targetPoint" />
          </mxGeometry>
        </mxCell>
        <mxCell id="2i_2w3KIfX5WxP5sCduS-40" value="Create QC Report" style="ellipse;whiteSpace=wrap;html=1;aspect=fixed;" vertex="1" parent="1">
          <mxGeometry x="1336.98" y="585" width="70" height="70" as="geometry" />
        </mxCell>
        <mxCell id="2i_2w3KIfX5WxP5sCduS-41" style="edgeStyle=orthogonalEdgeStyle;rounded=0;orthogonalLoop=1;jettySize=auto;html=1;fontFamily=Helvetica;fontSize=12;fontColor=default;startArrow=classic;startFill=1;entryX=1;entryY=0.5;entryDx=0;entryDy=0;" edge="1" parent="1" source="jkwwJKn7hhoEOLC9MU1T-80" target="2i_2w3KIfX5WxP5sCduS-26">
          <mxGeometry relative="1" as="geometry">
            <Array as="points">
              <mxPoint x="1750" y="-50" />
            </Array>
            <mxPoint x="1390" y="-40" as="targetPoint" />
            <mxPoint x="1311" y="-40" as="sourcePoint" />
          </mxGeometry>
        </mxCell>
        <mxCell id="2i_2w3KIfX5WxP5sCduS-42" style="edgeStyle=orthogonalEdgeStyle;rounded=0;orthogonalLoop=1;jettySize=auto;html=1;fontFamily=Helvetica;fontSize=12;fontColor=default;startArrow=classic;startFill=1;" edge="1" parent="1" source="jkwwJKn7hhoEOLC9MU1T-80" target="2i_2w3KIfX5WxP5sCduS-30">
          <mxGeometry relative="1" as="geometry">
            <Array as="points">
              <mxPoint x="1705" y="50" />
            </Array>
            <mxPoint x="1431" y="-40" as="targetPoint" />
            <mxPoint x="1715" y="165" as="sourcePoint" />
          </mxGeometry>
        </mxCell>
        <mxCell id="2i_2w3KIfX5WxP5sCduS-43" style="edgeStyle=orthogonalEdgeStyle;rounded=0;orthogonalLoop=1;jettySize=auto;html=1;fontFamily=Helvetica;fontSize=12;fontColor=default;startArrow=classic;startFill=1;" edge="1" parent="1" source="jkwwJKn7hhoEOLC9MU1T-80" target="2i_2w3KIfX5WxP5sCduS-28">
          <mxGeometry relative="1" as="geometry">
            <Array as="points">
              <mxPoint x="1680" y="150" />
            </Array>
            <mxPoint x="1431" y="60" as="targetPoint" />
            <mxPoint x="1680" y="165" as="sourcePoint" />
          </mxGeometry>
        </mxCell>
        <mxCell id="2i_2w3KIfX5WxP5sCduS-44" style="edgeStyle=orthogonalEdgeStyle;rounded=0;orthogonalLoop=1;jettySize=auto;html=1;fontFamily=Helvetica;fontSize=12;fontColor=default;startArrow=classic;startFill=1;" edge="1" parent="1" source="jkwwJKn7hhoEOLC9MU1T-80" target="2i_2w3KIfX5WxP5sCduS-32">
          <mxGeometry relative="1" as="geometry">
            <Array as="points">
              <mxPoint x="1570" y="258" />
              <mxPoint x="1570" y="258" />
            </Array>
            <mxPoint x="1429" y="160" as="targetPoint" />
            <mxPoint x="1690" y="165" as="sourcePoint" />
          </mxGeometry>
        </mxCell>
        <mxCell id="2i_2w3KIfX5WxP5sCduS-45" style="edgeStyle=orthogonalEdgeStyle;rounded=0;orthogonalLoop=1;jettySize=auto;html=1;fontFamily=Helvetica;fontSize=12;fontColor=default;startArrow=classic;startFill=1;" edge="1" parent="1" source="jkwwJKn7hhoEOLC9MU1T-80" target="2i_2w3KIfX5WxP5sCduS-34">
          <mxGeometry relative="1" as="geometry">
            <Array as="points">
              <mxPoint x="1520" y="370" />
              <mxPoint x="1520" y="370" />
            </Array>
            <mxPoint x="1429" y="268" as="targetPoint" />
            <mxPoint x="1620" y="268" as="sourcePoint" />
          </mxGeometry>
        </mxCell>
        <mxCell id="2i_2w3KIfX5WxP5sCduS-46" style="edgeStyle=orthogonalEdgeStyle;rounded=0;orthogonalLoop=1;jettySize=auto;html=1;fontFamily=Helvetica;fontSize=12;fontColor=default;startArrow=classic;startFill=1;" edge="1" parent="1" source="jkwwJKn7hhoEOLC9MU1T-80" target="2i_2w3KIfX5WxP5sCduS-36">
          <mxGeometry relative="1" as="geometry">
            <Array as="points">
              <mxPoint x="1520" y="450" />
              <mxPoint x="1520" y="450" />
            </Array>
            <mxPoint x="1417" y="380" as="targetPoint" />
            <mxPoint x="1620" y="380" as="sourcePoint" />
          </mxGeometry>
        </mxCell>
        <mxCell id="2i_2w3KIfX5WxP5sCduS-47" style="edgeStyle=orthogonalEdgeStyle;rounded=0;orthogonalLoop=1;jettySize=auto;html=1;fontFamily=Helvetica;fontSize=12;fontColor=default;startArrow=classic;startFill=1;" edge="1" parent="1" source="jkwwJKn7hhoEOLC9MU1T-80" target="2i_2w3KIfX5WxP5sCduS-38">
          <mxGeometry relative="1" as="geometry">
            <Array as="points">
              <mxPoint x="1705" y="540" />
            </Array>
            <mxPoint x="1417" y="460" as="targetPoint" />
            <mxPoint x="1620" y="460" as="sourcePoint" />
          </mxGeometry>
        </mxCell>
        <mxCell id="2i_2w3KIfX5WxP5sCduS-48" style="edgeStyle=orthogonalEdgeStyle;rounded=0;orthogonalLoop=1;jettySize=auto;html=1;fontFamily=Helvetica;fontSize=12;fontColor=default;startArrow=classic;startFill=1;" edge="1" parent="1" source="jkwwJKn7hhoEOLC9MU1T-80" target="2i_2w3KIfX5WxP5sCduS-40">
          <mxGeometry relative="1" as="geometry">
            <Array as="points">
              <mxPoint x="1715" y="620" />
            </Array>
            <mxPoint x="1417" y="550" as="targetPoint" />
            <mxPoint x="1715" y="495" as="sourcePoint" />
          </mxGeometry>
        </mxCell>
      </root>
    </mxGraphModel>
  </diagram>
</mxfile>
